<svg width="256" height="256" viewBox="0 0 256 256" fill="none" xmlns="http://www.w3.org/2000/svg">
<path d="M163.182 253.769L241.257 105.754L131.983 56.2731L53.9077 204.288L163.182 253.769Z" fill="black"/>
<path d="M168.422 241.792L246.498 93.7769L137.224 44.2961L59.1481 192.311L168.422 241.792Z" fill="#92FBFF"/>
<path d="M55.5272 193.518L136.179 40.8388L250.488 92.5349L169.837 245.214L55.5272 193.518ZM139.02 47.9519L63.349 191.232L167.004 238.106L242.675 94.8258L139.02 47.9519Z" fill="black"/>
<path d="M164.72 204.59L195.394 42.2019L76.2158 19.8937L45.5416 182.281L164.72 204.59Z" fill="black"/>
<path d="M172.732 190.833L203.406 28.4451L84.2279 6.13682L53.5536 168.524L172.732 190.833Z" fill="#F4FF8C"/>
<path d="M50.4501 170.553L82.2015 3.02131L206.853 26.2945L175.102 193.826L50.4501 170.553ZM87.0316 9.2676L57.2496 166.483L170.281 187.583L200.063 30.368L87.0316 9.2676Z" fill="black"/>
<path d="M167.676 212.618L123.118 52.8777L5.37419 80.4574L49.932 240.198L167.676 212.618Z" fill="black"/>
<path d="M177.696 200.858L133.138 41.1177L15.394 68.6974L59.9517 228.438L177.696 200.858Z" fill="#FF91F9"/>
<path d="M58.0476 231.526L12.1737 66.6822L135.298 37.782L181.172 202.625L58.0476 231.526ZM19.3244 70.4145L62.3863 225.101L174.032 198.892L130.97 44.2054L19.3244 70.4145Z" fill="black"/>
<path d="M185.168 53.0662H128.393C115.834 52.5259 103.354 55.2993 92.206 61.1079C84.9719 65.1318 78.6475 70.6075 73.6297 77.1912C66.8257 82.3701 61.1825 88.9173 57.0639 96.4108C51.4834 107.468 48.721 119.733 49.0222 132.116C48.731 144.471 51.4932 156.708 57.0639 167.74C62.6098 178.35 71.172 187.08 81.6714 192.83C92.8195 199.178 105.432 202.505 118.261 202.48C132.401 202.709 146.26 198.52 157.906 190.498C164.166 186.179 169.819 181.04 174.713 175.219C181.828 169.302 187.867 162.202 192.566 154.23L193.692 152.22V103.648V53.0662H185.168ZM185.168 95.2046H128.876C125.74 95.0227 122.603 95.5582 119.704 96.7705C116.806 97.9828 114.222 99.84 112.149 102.201C107.932 107.69 105.82 114.508 106.198 121.42C105.575 129.009 107.941 136.541 112.793 142.409C115.522 144.904 118.74 146.807 122.241 147.997C125.743 149.188 129.453 149.64 133.138 149.325C137.225 149.43 141.274 148.533 144.934 146.71C148.593 144.888 151.749 142.196 154.127 138.871H123.971V112.253H185.087V149.888C179.733 159.036 172.396 166.867 163.616 172.807C153.395 179.798 141.258 183.45 128.876 183.261C117.594 183.195 106.518 180.232 96.7093 174.656C87.5528 169.761 80.0529 162.261 75.1577 153.105C70.1157 143.315 67.5741 132.43 67.7593 121.42C67.5841 110.411 70.1251 99.5291 75.1577 89.7362C79.9553 80.6168 87.3414 73.1188 96.3877 68.1846C101.831 65.2361 107.776 63.3271 113.918 62.5554H116.17H117.216H118.02H119.387H184.524L185.168 95.2046Z" fill="black"/>
<path d="M185.168 95.6064H128.876C125.74 95.4245 122.603 95.9601 119.705 97.1724C116.806 98.3847 114.222 100.242 112.149 102.603C107.932 108.092 105.821 114.91 106.199 121.822C105.575 129.411 107.942 136.942 112.793 142.811C115.523 145.306 118.74 147.209 122.241 148.399C125.743 149.589 129.453 150.042 133.138 149.727C137.225 149.832 141.275 148.934 144.934 147.112C148.593 145.289 151.749 142.598 154.127 139.273H123.971V112.253H185.087V149.888C179.733 159.036 172.396 166.867 163.616 172.806C153.395 179.798 141.258 183.45 128.876 183.261C117.594 183.195 106.518 180.232 96.7094 174.656C87.5529 169.761 80.053 162.261 75.1578 153.104C70.1158 143.315 67.5742 132.43 67.7594 121.42C67.5842 110.411 70.1253 99.5289 75.1578 89.736C79.9554 80.6166 87.3415 73.1186 96.3878 68.1843C101.831 65.2359 107.776 63.3269 113.919 62.5552H116.17H117.216H118.02H119.387H184.524L185.168 95.6064Z" fill="white"/>
</svg>
